<?xml version="1.0" encoding="UTF-8" standalone="no"?>
<svg
   xmlns:dc="http://purl.org/dc/elements/1.1/"
   xmlns:cc="http://creativecommons.org/ns#"
   xmlns:rdf="http://www.w3.org/1999/02/22-rdf-syntax-ns#"
   xmlns:svg="http://www.w3.org/2000/svg"
   xmlns="http://www.w3.org/2000/svg"
   xmlns:sodipodi="http://sodipodi.sourceforge.net/DTD/sodipodi-0.dtd"
   xmlns:inkscape="http://www.inkscape.org/namespaces/inkscape"
   inkscape:export-ydpi="249"
   inkscape:export-xdpi="249"
   inkscape:export-filename="C:\Users\Raccoon5\Desktop\Raccoon site\src\assets\racc-dark-rect-icon.png"
   width="246.21747mm"
   height="246.21747mm"
   viewBox="0 0 246.21747 246.21746"
   version="1.1"
   id="svg8"
   inkscape:version="1.0 (4035a4fb49, 2020-05-01)"
   sodipodi:docname="racc-dark-rect-icon.svg">
  <defs
     id="defs2" />
  <sodipodi:namedview
     inkscape:snap-bbox-edge-midpoints="true"
     inkscape:bbox-nodes="true"
     inkscape:snap-bbox="true"
     inkscape:snap-text-baseline="true"
     id="base"
     pagecolor="#ffffff"
     bordercolor="#666666"
     borderopacity="1.0"
     inkscape:pageopacity="0.0"
     inkscape:pageshadow="2"
     inkscape:zoom="0.7"
     inkscape:cx="445.23067"
     inkscape:cy="450.29876"
     inkscape:document-units="mm"
     inkscape:current-layer="layer1"
     inkscape:document-rotation="0"
     showgrid="false"
     showguides="true"
     inkscape:guide-bbox="true"
     inkscape:window-width="1920"
     inkscape:window-height="1017"
     inkscape:window-x="-8"
     inkscape:window-y="-8"
     inkscape:window-maximized="1"
     inkscape:snap-intersection-paths="true"
     inkscape:snap-bbox-midpoints="true"
     inkscape:snap-global="false">
    <sodipodi:guide
       inkscape:color="rgb(0,0,255)"
       inkscape:locked="false"
       inkscape:label=""
       id="guide868"
       orientation="-1,0"
       position="-190.61467,217.65005" />
    <sodipodi:guide
       id="guide870"
       orientation="0,1"
       position="79.752976,203.75347"
       inkscape:label=""
       inkscape:locked="false"
       inkscape:color="rgb(0,0,255)" />
    <sodipodi:guide
       id="guide872"
       orientation="0,-1"
       position="-35.598773,-79.01912" />
    <sodipodi:guide
       id="guide1020"
       orientation="0,1"
       position="253.62202,43.375468"
       inkscape:label=""
       inkscape:locked="false"
       inkscape:color="rgb(0,0,255)" />
    <sodipodi:guide
       position="0.37797619,246.21747"
       orientation="0.70710678,0.70710678"
       id="guide1451"
       inkscape:label=""
       inkscape:locked="false"
       inkscape:color="rgb(0,0,255)" />
    <sodipodi:guide
       position="246.44048,246.21747"
       orientation="-0.70710678,0.70710678"
       id="guide1453"
       inkscape:label=""
       inkscape:locked="false"
       inkscape:color="rgb(0,0,255)" />
  </sodipodi:namedview>
  <metadata
     id="metadata5">
    <rdf:RDF>
      <cc:Work
         rdf:about="">
        <dc:format>image/svg+xml</dc:format>
        <dc:type
           rdf:resource="http://purl.org/dc/dcmitype/StillImage" />
        <dc:title></dc:title>
      </cc:Work>
    </rdf:RDF>
  </metadata>
  <g
     transform="translate(-6.7336646,-91.559051)"
     inkscape:label="Layer 1"
     inkscape:groupmode="layer"
     id="layer1">
    <path
       inkscape:export-ydpi="249"
       inkscape:export-xdpi="249"
       id="rect1448"
       style="fill:#b3babe;fill-opacity:1;stroke:#b3babe;stroke-width:20.1196;stroke-linejoin:round;stroke-miterlimit:50;stroke-dasharray:none;stroke-opacity:1;paint-order:markers stroke fill"
       d="M 21.622599,128.03099 H 238.66319 V 301.14961 H 21.622599 Z" />
    <path
       inkscape:export-ydpi="249"
       inkscape:export-xdpi="249"
       clip-path="none"
       mask="none"
       style="fill:#081214;fill-opacity:1;stroke:none;stroke-width:0.773087px;stroke-linecap:butt;stroke-linejoin:miter;stroke-opacity:1"
       d="m 85.398448,191.11124 c 11.836563,-7.60163 -10.184229,-28.42323 -23.857517,-33.27207 -7.168103,-2.54197 -11.277636,-3.62126 -18.021809,-0.52445 -6.03123,2.76944 -6.903665,12.14411 -6.626458,18.77501 0.505855,12.10022 12.78916,36.21188 23.304614,30.2038 17.934292,-10.24687 7.702459,-3.94432 25.20117,-15.18229 z"
       id="path851"
       sodipodi:nodetypes="ssssss" />
    <path
       inkscape:export-ydpi="249"
       inkscape:export-xdpi="249"
       d="m 129.69668,190.00516 c -5.41356,0.022 -11.22377,2.51254 -16.0476,4.96972 -25.862888,13.17411 -41.291308,23.7303 -68.147265,47.7113 l 51.31108,7.05797 c 0,0 -0.0035,0.008 -0.0036,0.008 13.021705,-9.73509 23.833845,-17.18625 31.473525,-17.22737 6.17493,-0.0333 15.93036,7.43119 27.97297,16.52561 0.0227,-0.003 56.57378,-7.78251 56.58104,-7.78351 -24.54555,-21.7526 -41.10582,-33.19658 -66.05539,-45.73983 -5.51355,-2.77189 -10.91367,-5.54844 -17.08474,-5.52214 z m 36.38795,29.81937 a 10.768006,10.768006 0 0 1 0.0243,0 10.768006,10.768006 0 0 1 10.76782,10.76782 10.768006,10.768006 0 0 1 -10.76782,10.76782 10.768006,10.768006 0 0 1 -10.76833,-10.76782 10.768006,10.768006 0 0 1 10.74404,-10.76782 z m -72.063296,0.5519 a 10.768006,10.768006 0 0 1 5.29e-4,0 10.768006,10.768006 0 0 1 0.02429,0 10.768006,10.768006 0 0 1 10.767817,10.76834 10.768006,10.768006 0 0 1 -10.767817,10.76782 10.768006,10.768006 0 0 1 -10.768335,-10.76782 10.768006,10.768006 0 0 1 10.74353,-10.76834 z m 124.748976,26.20667 -55.60281,7.6476 c 1.10757,0.81864 2.22782,1.64051 3.36569,2.46393 l 60.39011,-2.23087 c -0.29153,-0.54414 -0.67994,-1.04943 -1.17616,-1.50689 -2.40608,-2.21814 -4.72219,-4.33314 -6.97683,-6.37377 z M 39.5983,248.00524 c -1.945186,1.76689 -3.946469,3.59671 -6.018754,5.50354 -0.591086,0.54389 -0.997478,1.17645 -1.242818,1.87637 l 54.320715,1.99988 c 1.099719,-0.82568 2.189736,-1.64641 3.264916,-2.45722 z m 187.70792,11.55847 -53.85666,1.98954 c 0.96249,0.65419 1.93061,1.30534 2.9099,1.94871 l 48.22186,1.62988 c 1.31282,-1.87011 2.26919,-3.77402 2.7249,-5.56813 z M 32.756857,260.4975 c 0.626911,1.61105 1.64776,3.30922 2.939872,4.98264 l 41.881164,-1.38286 c 0.853522,-0.61881 1.701816,-1.23813 2.543513,-1.85622 z m 150.456443,7.30653 c 5.77671,3.43735 11.78795,6.52428 17.96067,8.89764 5.95851,2.291 14.33118,-1.92086 20.04684,-7.61245 z m -111.498098,0.46354 -32.498274,1.07331 c 6.253629,5.90295 15.153539,10.18788 20.592025,6.80837 4.070363,-2.52934 8.040224,-5.18433 11.906249,-7.88168 z"
       style="fill:#081214;fill-opacity:1;stroke:none;stroke-width:0.773086px;stroke-linecap:butt;stroke-linejoin:miter;stroke-opacity:1"
       clip-path="none"
       id="path847" />
    <path
       inkscape:export-ydpi="249"
       inkscape:export-xdpi="249"
       clip-path="none"
       mask="none"
       style="fill:#081214;fill-opacity:1;stroke:none;stroke-width:0.773087px;stroke-linecap:butt;stroke-linejoin:miter;stroke-opacity:1"
       d="m 129.17223,279.34715 c 2.082,0 7.0051,-0.76098 16.32948,-11.25854 1.02022,-1.1486 2.12981,-5.04184 -0.1084,-5.61824 -10.48827,-2.70097 -21.20095,-2.45778 -31.16509,0.13791 -1.99613,0.52004 -1.87475,2.8209 -0.17268,5.72913 5.40167,9.2291 13.08818,11.06646 15.1166,11.0096 z"
       id="path1012"
       sodipodi:nodetypes="sssssss" />
    <path
       inkscape:export-ydpi="249"
       inkscape:export-xdpi="249"
       clip-path="none"
       mask="none"
       sodipodi:nodetypes="ssssss"
       id="path851-2"
       d="m 169.75339,188.94796 c -11.83655,-7.60163 10.18425,-28.42323 23.85752,-33.27208 7.16811,-2.54197 11.27765,-3.62126 18.02182,-0.52445 6.03123,2.76944 6.90368,12.14412 6.62645,18.775 -0.50584,12.10022 -12.78916,36.21189 -23.3046,30.2038 -17.93429,-10.24686 -7.70247,-3.94431 -25.20119,-15.18227 z"
       style="fill:#081214;fill-opacity:1;stroke:none;stroke-width:0.773087px;stroke-linecap:butt;stroke-linejoin:miter;stroke-opacity:1" />
  </g>
</svg>
